# Alias OBJ Model File
# Exported from SketchUp, (c) 2000-2012 Trimble Navigation Limited
# File units = centimeters

mtllib Car_ModelV2.mtl

g Mesh1 Group2 Group1 Model

usemtl Laura_Glasses
v 29.424 0.2 3.05569
vt 0.393701 3.8863e-15
vn 1 4.21452e-15 -5.57707e-16
v 29.424 0.2 -6.34431
vt 4.09449 3.66425e-15
v 29.424 1.7 -6.34431
vt 4.09449 0.590551
v 29.424 1.7 3.05569
vt 0.393701 0.590551
f 1/1/1 2/2/1 3/3/1 4/4/1 

vt -0.393701 0.866142
vn 9.16842e-18 -1 4.16262e-17
v 29.224 0.2 2.85569
vt -0.472441 0.944882
vt -4.09449 0.866142
f 1/5/2 5/6/2 2/7/2

v 20.624 0.2 2.85569
vt -0.472441 4.33071
f 5/6/2 1/5/2 6/8/2

v 12.424 0.2 2.85569
vt -0.472441 7.55906
f 6/8/2 1/5/2 7/9/2

v 20.624 0.2 3.05569
vt -0.393701 4.33071
f 8/10/2 7/9/2 1/5/2

v 12.224 0.2 3.05569
vt -0.393701 7.6378
f 9/11/2 7/9/2 8/10/2

v 12.224 0.2 -1.08288
vt -2.02306 7.6378
f 7/9/2 9/11/2 10/12/2

v 12.224 1.7 3.05569
vt -0.393701 0.590551
vn -1 -1.50398e-15 1.11721e-15
v 12.224 1.7 -1.08288
vt -2.02306 0.590551
vt -2.02306 1.15426e-14
vt -0.393701 1.15426e-14
f 11/13/3 12/14/3 10/15/3 9/16/3 

vt 0.393701 7.6378
vn 0 1 -0
v 12.424 1.7 2.85569
vt 0.472441 7.55906
vt 2.02306 7.6378
f 11/17/4 13/18/4 12/19/4

v 12.424 1.7 3.05569
vt 0.393701 7.55906
f 13/18/4 11/17/4 14/20/4

vt -4.33071 2.34492e-16
vn 1.01374e-15 -3.88833e-17 1
v 20.624 1.7 3.05569
vt -4.33071 0.590551
vt -7.55906 0.590551
vt -7.6378 0.590551
vt -7.6378 4.02028e-17
f 8/21/5 15/22/5 14/23/5 11/24/5 9/25/5 

vt -4.33071 5.4586e-16
vn 7.04992e-16 7.51991e-16 1
vt -0.866142 5.31982e-16
vt -0.866142 0.590551
f 8/26/6 1/27/6 4/28/6 15/22/6 

vt 0.393701 0.866142
vt 4.09449 0.866142
v 20.624 1.7 -6.34431
vt 4.09449 4.33071
v 20.624 1.7 -6.14431
vt 4.01575 4.33071
v 29.224 1.7 -6.14431
vt 4.01575 0.944882
v 29.224 1.7 2.85569
vt 0.472441 0.944882
v 20.624 1.7 2.85569
vt 0.472441 4.33071
vt 0.393701 4.33071
f 4/29/4 3/30/4 16/31/4 17/32/4 18/33/4 19/34/4 20/35/4 15/36/4 

vt 0.866142 1.38778e-17
vn -3.84541e-16 -6.12079e-31 -1
v 20.624 0.2 -6.34431
vt 4.33071 2.50615e-30
vt 4.33071 0.590551
vt 0.866142 0.590551
f 2/37/7 21/38/7 16/39/7 3/40/7 

v 20.624 0.2 -6.14431
vt -4.01575 4.33071
vt -4.09449 4.33071
f 22/41/2 21/42/2 2/7/2

v 20.424 0.2 -6.64431
vt -4.2126 4.40945
f 22/41/2 23/43/2 21/42/2

f 6/8/2 23/43/2 22/41/2

v 20.424 0.2 2.85569
vt -0.472441 4.40945
f 23/43/2 6/8/2 24/44/2

f 6/8/2 7/9/2 24/44/2

vt 4.40945 3.05311e-16
vn -5.68989e-16 0 -1
vt 7.55906 3.05311e-16
v 12.424 1.3 2.85569
vt 7.55906 0.433071
vt 7.55906 0.590551
v 20.424 1.7 2.85569
vt 4.40945 0.590551
f 24/45/8 7/46/8 25/47/8 13/48/8 26/49/8 

v 12.424 0.2 -6.64431
vt 4.2126 3.05311e-16
vn 1 0 -5.68989e-16
v 12.424 1.7 -6.64431
vt 4.2126 0.590551
vt 0.472441 0.590551
vt 0.472441 0.433071
vt 0.472441 3.05311e-16
f 27/50/9 28/51/9 13/52/9 25/53/9 7/54/9 

vt -4.40945 3.05311e-16
vn 5.68989e-16 0 1
v 20.424 1.7 -6.64431
vt -4.40945 0.590551
vt -7.55906 3.05311e-16
f 23/55/10 29/56/10 28/23/10 27/57/10 

vt -4.2126 3.05311e-16
vn -1 0 5.68989e-16
vt -0.472441 3.05311e-16
vt -0.472441 0.590551
vt -4.2126 0.590551
f 23/58/11 24/59/11 26/60/11 29/61/11 

vt 0.472441 4.40945
vt 4.2126 4.40945
f 26/62/4 17/32/4 29/63/4

f 17/32/4 26/62/4 20/35/4

f 13/18/4 20/35/4 26/62/4

f 13/18/4 15/36/4 20/35/4

f 15/36/4 13/18/4 14/20/4

vt -0.472441 0.433071
vn -1 1.53397e-17 -0
f 25/64/12 14/13/12 13/60/12

vt 4.01575 1.94289e-16
vt 4.01575 0.590551
vt 0.472441 1.94289e-16
f 22/65/9 17/66/9 20/52/9 6/67/9 

v 29.224 0.2 -6.14431
vt -0.944882 1.94289e-16
vt -0.944882 0.590551
vt -4.33071 1.94289e-16
f 30/68/10 18/69/10 17/22/10 22/70/10 

vt -4.01575 1.94289e-16
vt -0.472441 1.94289e-16
vt -4.01575 0.590551
f 30/71/11 5/72/11 19/60/11 18/73/11 

vt -4.01575 0.944882
f 2/7/2 5/6/2 30/74/2

f 2/7/2 30/74/2 22/41/2

vt 0.944882 1.94289e-16
vt 4.33071 1.94289e-16
vt 0.944882 0.590551
f 5/75/8 6/76/8 20/39/8 19/77/8 

f 29/63/4 17/32/4 16/31/4

v 20.624 1.7 -6.84431
vt 4.29134 4.33071
f 29/63/4 16/31/4 31/78/4

v 20.624 0.2 -6.84431
vt 4.29134 0
vn 1 0 -3.84541e-16
vt 4.29134 0.590551
vt 4.09449 0
f 32/79/13 31/80/13 16/3/13 21/81/13 

v 12.224 1.7 -6.84431
vt 7.6378 0.590551
vn -4.02852e-16 -4.44314e-32 -1
vt 4.33071 1.9067e-31
v 12.224 0.2 -6.84431
vt 7.6378 5.55112e-17
f 33/82/14 31/39/14 32/83/14 34/84/14 

vt 4.29134 7.6378
vt 4.2126 7.55906
f 33/85/4 28/86/4 31/78/4

v 12.224 1.7 -2.70575
vt 2.66198 7.6378
f 35/87/4 28/86/4 33/85/4

v 12.224 1.7 -2.50575
vt 2.58324 7.6378
f 36/88/4 28/86/4 35/87/4

v 12.224 1.7 -1.28288
vt 2.1018 7.6378
f 37/89/4 28/86/4 36/88/4

f 12/19/4 28/86/4 37/89/4

f 12/19/4 13/18/4 28/86/4

v 9.94402 1.7 -1.28288
vt 2.1018 8.53543
f 38/90/4 12/19/4 37/89/4

v 9.74402 1.7 -1.08288
vt 2.02306 8.61417
f 38/90/4 39/91/4 12/19/4

v 9.74402 1.7 -2.70575
vt 2.66198 8.61417
f 39/91/4 38/90/4 40/92/4

v 9.94402 1.7 -2.50575
vt 2.58324 8.53543
f 40/92/4 38/90/4 41/93/4

vt 2.58324 0.590551
vn 1 1.36051e-15 6.9103e-30
vt 2.1018 0.590551
v 9.94402 0.2 -1.28288
vt 2.1018 8.30963e-15
v 9.94402 0.2 -2.50575
vt 2.58324 1.07521e-14
f 41/94/15 38/95/15 42/96/15 43/97/15 

vt 8.53543 0.590551
vn -4.94731e-16 2.53663e-15 -1
v 12.224 0.2 -1.28288
vt 7.6378 -6.1919e-15
vt 8.53543 -8.6344e-15
f 38/98/16 37/82/16 44/99/16 42/100/16 

vt -2.1018 0.590551
vn -1 -1.36051e-15 -0
vt -2.58324 0.590551
v 12.224 0.2 -2.50575
vt -2.58324 9.53088e-15
vt -2.1018 9.53088e-15
f 37/101/17 36/102/17 45/103/17 44/104/17 

vn 6.18414e-16 -2.53663e-15 1
vt -8.53543 0.590551
vt -8.53543 -7.41315e-15
vt -7.6378 -7.41315e-15
f 36/24/18 41/105/18 43/106/18 45/107/18 

f 36/88/4 35/87/4 41/93/4

f 40/92/4 41/93/4 35/87/4

vn -1.2376e-15 0 -1
v 12.224 0.2 -2.70575
vt 7.6378 8.32667e-17
v 9.74402 0.2 -2.70575
vt 8.61417 -1.30451e-15
vt 8.61417 0.590551
f 35/82/19 46/108/19 47/109/19 40/110/19 

vt -4.29134 5.55112e-17
vn -1 0 -0
vt -2.66198 8.32667e-17
vt -2.66198 0.590551
vt -4.29134 0.590551
f 34/111/20 46/112/20 35/113/20 33/114/20 

vt -4.2126 7.55906
vt -2.66198 7.6378
vt -4.29134 7.6378
f 27/115/2 46/116/2 34/117/2

vt -2.58324 7.6378
f 27/115/2 45/118/2 46/116/2

vt -2.1018 7.6378
f 27/115/2 44/119/2 45/118/2

f 27/115/2 10/12/2 44/119/2

f 7/9/2 10/12/2 27/115/2

vt -2.1018 8.53543
f 44/119/2 10/12/2 42/120/2

v 9.74402 0.2 -1.08288
vt -2.02306 8.61417
f 48/121/2 42/120/2 10/12/2

vt -2.66198 8.61417
f 42/120/2 48/121/2 47/122/2

vn -1 -1.50398e-15 1.2376e-15
vt -2.66198 1.16511e-14
vt -2.02306 1.16233e-14
f 39/14/21 40/113/21 47/123/21 48/124/21 

vt -7.6378 5.55112e-17
vn 1.2376e-15 3.72264e-30 1
vt -8.61417 0.590551
vt -8.61417 -1.33227e-15
f 10/125/22 12/24/22 39/126/22 48/127/22 

vt -2.58324 8.53543
f 42/120/2 47/122/2 43/128/2

f 43/128/2 47/122/2 45/118/2

f 46/116/2 45/118/2 47/122/2

f 27/115/2 34/117/2 23/43/2

vt -4.29134 4.33071
f 23/43/2 34/117/2 32/129/2

f 21/42/2 23/43/2 32/129/2

f 29/63/4 31/78/4 28/86/4

g Mesh2 Group3 Group1 Model

usemtl Translucent_Glass_Gray
v 9.94402 0.2 -2.50575
vt -1.17323 2.97694
vn 1.75277e-15 1 -1.26568e-15
v 12.224 0.2 -2.70575
vt -0.275591 3.05568
v 9.74402 0.2 -2.70575
vt -1.25197 3.05568
f 49/130/23 50/131/23 51/132/23

v 12.224 0.2 -2.50563
vt -0.275591 2.97689
f 50/131/23 49/130/23 52/133/23

vt -0.275748 0.0787402
vn -5.30526e-05 1.50703e-21 1
vt -1.17339 0.0787402
v 9.94402 1.40998e-16 -2.50575
vt -1.17339 5.55156e-17
v 12.224 1.40998e-16 -2.50563
vt -0.275748 5.55156e-17
f 52/134/24 49/135/24 53/136/24 54/137/24 

vt 2.97765 5.55112e-17
vn 1 0 -0.0006048
vt 2.97765 0.0787402
v 9.94476 0.2 -1.283
vt 2.49626 0.0787402
v 9.94476 1.40994e-16 -1.283
vt 2.49626 5.55096e-17
f 53/138/25 49/139/25 55/140/25 56/141/25 

vt -1.17294 2.49555
f 51/132/23 55/142/23 49/130/23

v 9.74402 0.2 -1.08288
vt -1.25197 2.41676
f 57/143/23 55/142/23 51/132/23

v 12.224 0.2 -1.08288
vt -0.275591 2.41676
f 55/142/23 57/143/23 58/144/23

v 12.224 1.40998e-16 -1.08288
vt -0.275591 5.55112e-17
vn -5.63993e-14 6.36177e-27 1
vt -0.275591 0.0787402
vt -1.25197 0.0787402
v 9.74402 1.40011e-13 -1.08288
vt -1.25197 5.51226e-14
f 59/145/26 58/146/26 57/147/26 60/148/26 

v 12.224 0.2 3.05569
vt -0.787402 0.0787402
vn -1 5.63993e-14 -2.72555e-15
vt -2.41676 0.0787402
vt -2.41676 -1.54876e-14
v 12.224 1.40998e-16 3.05569
vt -0.787402 -1.54876e-14
f 61/149/27 58/150/27 59/151/27 62/152/27 

v 12.924 0.2 3.05569
vt -1.38014e-16 0.787402
vt -0.275591 0.787402
f 63/153/23 58/144/23 61/154/23

vt -0.275591 2.4955
f 58/144/23 63/153/23 44/155/23

v 12.924 0.2 -6.84431
vt -1.38014e-16 4.68504
f 64/156/23 44/155/23 63/153/23

f 64/156/23 50/131/23 44/155/23

v 12.224 0.2 -6.84431
vt -0.275591 4.68504
f 50/131/23 64/156/23 65/157/23

vt 0 0.0787402
vn 0 0 -1
v 12.924 1.40998e-16 -6.84431
vt 0 5.55112e-17
v 12.224 1.40998e-16 -6.84431
vt 0.275591 5.55112e-17
vt 0.275591 0.0787402
f 64/158/28 66/159/28 67/160/28 65/161/28 

vt -4.68504 0.0787402
v 12.924 0.2 -7.21424
vt -4.83068 0.0787402
v 12.924 0.2 -7.41424
vt -4.90942 0.0787402
v 12.924 0.2 -8.94431
vt -5.51181 0.0787402
v 12.924 0 -8.94431
vt -5.51181 0
vt -4.68504 5.55112e-17
f 64/162/20 68/163/20 69/164/20 70/165/20 71/166/20 66/167/20 

v 27.924 0.2 5.05569
vt 5.90551 -9.96602e-17
vt -1.38014e-16 4.83068
f 64/156/23 72/168/23 68/169/23

f 63/153/23 72/168/23 64/156/23

v 12.924 0.2 5.05569
vt -1.38014e-16 -9.96602e-17
f 72/168/23 63/153/23 73/170/23

v 12.924 1.40998e-16 3.05569
vt -0.787402 5.55112e-17
v 12.924 0 5.05569
vt 0 0
f 73/158/20 63/149/20 74/171/20 75/172/20 

vn 0 0 1
f 74/159/29 63/158/29 61/146/29 62/145/29 

v 12.224 1.40998e-16 -1.28288
vt 0.275591 2.4955
vn -7.17879e-18 -1 3.64684e-20
vt 0.275591 2.97689
v 12.224 1.40998e-16 -2.70575
vt 0.275591 3.05568
vt 0.275591 4.68504
vt 3.98503e-34 4.68504
vt 0 5.51181
v 27.924 0 -8.94431
vt -5.90551 5.51181
v 27.924 0 -6.34431
vt -5.90551 4.48819
v 29.424 0 -6.34431
vt -6.49606 4.48819
v 29.424 0 3.05569
vt -6.49606 0.787402
v 27.924 0 3.05569
vt -5.90551 0.787402
v 27.924 0 5.05569
vt -5.90551 -1.54606e-36
vt 3.98503e-34 0.787402
vt 0.275591 0.787402
vt 0.275591 2.41676
f 76/173/30 54/174/30 77/175/30 67/176/30 66/177/30 71/178/30 78/179/30 79/180/30 80/181/30 81/182/30 82/183/30 83/184/30 75/172/30 74/185/30 62/186/30 59/187/30 

vt -2.4955 0.0787402
vn -1 6.21079e-32 3.69001e-15
vt -2.97689 0.0787402
vt -2.97689 5.55112e-17
vt -2.4955 5.55112e-17
f 44/188/31 52/189/31 54/190/31 76/191/31 

f 50/131/23 52/133/23 44/155/23

vt 0.275723 5.55112e-17
vn 5.32661e-05 0 -1
vt 1.17307 5.55096e-17
vt 1.17307 0.0787402
vt 0.275723 0.0787402
f 76/192/32 56/193/32 55/194/32 44/195/32 

v 9.74402 1.40998e-16 -2.70575
vt 1.25197 3.05568
vn -1.5876e-14 -1 2.74915e-14
vt 1.17323 2.97694
vt 1.17294 2.49555
vt 1.25197 2.41676
f 84/196/33 77/175/33 54/174/33 53/197/33 56/198/33 76/173/33 59/187/33 60/199/33 

vt 1.25197 5.55112e-17
vt 1.25197 0.0787402
f 50/161/28 77/160/28 84/200/28 51/201/28 

vn -1 1.26267e-30 4.36088e-15
vt -3.05568 5.55112e-17
vt -3.05568 0.0787402
f 67/167/34 77/202/34 50/203/34 65/162/34 

vn -1 3.75996e-14 -3.6551e-14
vt -3.05568 -4.70179e-14
vt -2.41676 8.04912e-15
f 51/203/35 84/204/35 60/205/35 57/150/35 

f 55/142/23 58/144/23 44/155/23

vt -5.90551 0
v 27.924 0.2 -8.94431
vt -5.90551 0.0787402
f 78/206/28 71/172/28 70/158/28 85/207/28 

vt -1.38014e-16 5.51181
v 13.124 0.2 -7.41424
vt 0.0787402 4.90942
vt 5.90551 5.51181
f 70/208/23 86/209/23 85/210/23

vt -1.38014e-16 4.90942
f 86/209/23 70/208/23 69/211/23

vt -0.0787402 0.0787402
v 12.924 3.2 -7.41424
vt 0 1.25984
v 13.124 3.2 -7.41424
vt -0.0787402 1.25984
f 86/212/28 69/158/28 87/213/28 88/214/28 

usemtl Laura_Glasses
vt 0 4.90942
vt 0 4.83068
v 13.124 0.2 -7.21424
vt 0.0787402 4.83068
f 69/215/4 68/216/4 89/217/4 86/209/4 

usemtl Translucent_Glass_Gray
vt -4.90942 1.25984
v 12.924 3.2 -7.21424
vt -4.83068 1.25984
f 87/218/20 69/164/20 68/163/20 90/219/20 

vt 0.0787402 0.0787402
v 13.124 3.2 -7.21424
vt 0.0787402 1.25984
f 68/158/29 89/220/29 91/221/29 90/213/29 

f 68/169/23 72/168/23 89/217/23

f 89/217/23 72/168/23 86/209/23

f 85/210/23 86/209/23 72/168/23

v 27.924 0.2 3.05569
vt 5.90551 0.787402
f 85/210/23 72/168/23 92/222/23

vn 1 0 -0
vt 0.787402 0
vt 0.787402 0.0787402
f 83/172/36 82/223/36 92/224/36 72/158/36 

vt 5.90551 0.0787402
vt 5.90551 0
vt 6.49606 0
v 29.424 0.2 3.05569
vt 6.49606 0.0787402
f 92/225/29 82/226/29 81/227/29 93/228/29 

v 29.424 0.2 -6.34431
vt 4.48819 0.0787402
vt 4.48819 0
f 94/229/36 93/224/36 81/223/36 80/230/36 

v 27.924 0.2 -6.34431
vt 5.90551 4.48819
vt 6.49606 0.787402
vt 6.49606 4.48819
f 95/231/23 93/232/23 94/233/23

f 93/232/23 95/231/23 92/222/23

f 85/210/23 92/222/23 95/231/23

vt 5.51181 0.0787402
vt 5.51181 0
f 85/234/36 95/229/36 79/230/36 78/235/36 

vt -6.49606 0.0787402
vt -6.49606 0
f 79/206/28 95/207/28 94/236/28 80/237/28 

f 75/172/29 83/226/29 72/225/29 73/158/29 

vt 4.83068 0.0787402
vt 4.90942 0.0787402
vt 4.90942 1.25984
vt 4.83068 1.25984
f 89/238/36 86/239/36 88/240/36 91/241/36 

f 87/215/4 90/216/4 91/217/4 88/209/4 

g Mesh3 Group4 Group1 Model

usemtl Laura_Glasses
v 20.624 0.2 -8.24431
vt 0 0.748031
vn 0 -1 -0
v 20.824 0.2 -8.04431
vt -0.0787402 0.669291
v 20.624 0.2 -6.34431
f 96/242/37 97/243/37 98/172/37

v 23.524 0.2 -8.24431
vt -1.14173 0.748031
f 97/243/37 96/242/37 99/244/37

vt -1.14173 0
v 20.624 2.2 -8.24431
vt 0 0.787402
v 23.524 2.2 -8.24431
vt -1.14173 0.787402
f 99/245/28 96/172/28 100/246/28 101/247/28 

vt -0.748031 0
v 20.624 2.2 -6.34431
vt -0.748031 0.787402
f 96/248/20 98/172/20 102/246/20 100/249/20 

v 23.524 0.2 -6.34431
vt 1.14173 0
v 23.524 2.2 -6.34431
vt 1.14173 0.787402
f 98/172/29 103/250/29 104/251/29 102/246/29 

v 20.824 0.2 -6.54431
f 98/172/37 105/212/37 103/245/37

f 105/212/37 98/172/37 97/243/37

v 20.824 2.2 -8.04431
vt 0.669291 0.787402
v 20.824 2.2 -6.54431
vt 0.0787402 0.787402
vt 0.0787402 1.94289e-16
vt 0.669291 1.94289e-16
f 106/252/36 107/253/36 105/254/36 97/255/36 

vt 0.0787402 0.669291
f 106/256/4 100/242/4 107/220/4

vt 1.14173 0.748031
f 100/242/4 106/256/4 101/257/4

v 23.324 2.2 -8.04431
vt 1.06299 0.669291
f 101/257/4 106/256/4 108/258/4

vt 1.06299 0.787402
v 23.324 0.2 -8.04431
vt 1.06299 1.94289e-16
f 108/259/29 106/253/29 97/254/29 109/260/29 

vt -1.06299 0.669291
f 97/243/37 99/244/37 109/261/37

v 23.324 0.2 -6.54431
vt -1.06299 0.0787402
f 109/261/37 99/244/37 110/262/37

f 103/245/37 110/262/37 99/244/37

f 103/245/37 105/212/37 110/262/37

vt -0.0787402 0.787402
v 23.324 2.2 -6.54431
vt -1.06299 0.787402
vt -1.06299 1.94289e-16
vt -0.0787402 1.94289e-16
f 107/263/28 111/264/28 110/265/28 105/266/28 

vt 1.06299 0.0787402
f 107/220/4 104/250/4 111/267/4

f 107/220/4 102/172/4 104/250/4

f 102/172/4 107/220/4 100/242/4

f 111/267/4 104/250/4 108/258/4

f 101/257/4 108/258/4 104/250/4

vt 0.748031 0
vt 0.748031 0.787402
f 103/172/36 99/268/36 101/269/36 104/246/36 

vt -0.669291 0.787402
vt -0.669291 1.94289e-16
f 111/263/20 108/270/20 109/271/20 110/266/20 

